<svg fill='#f9c513' id="Capa_1" enable-background="new 0 0 510 510" height="512" viewBox="0 0 510 510" width="512" xmlns="http://www.w3.org/2000/svg"><g><path d="m255 89.79c7.811-7.811 81.967-81.967 89.79-89.79h-179.58c7.906 7.906 81.919 81.919 89.79 89.79z"/><path d="m178.24 132.61 51.43-25.72c-7.237-7.249-88.11-88.12-88.11-88.12l-20.17 53.83z"/><path d="m280.33 106.89 51.43 25.72 45.38-47.91s9.034-9.736 11.48-12.11c0 0-20.09-53.91-20.19-53.81z"/><path d="m234.46 176h41.08l9.11-33.4-29.65-14.83-29.65 14.83z"/><path d="m273.47 206h-36.94l-21.99 212.55 40.46 52.02 40.46-52.02z"/><path d="m174.79 427.45 33-235.2-9.81-35.97-26.22 13.11c-20.005-21.103 38.522 40.672-84.69-89.39h-55.07v430h207c-29.556-37.995 6.923 8.911-64.21-82.55z"/><path d="m422.93 80c-9.255 9.769-75.438 79.63-84.69 89.39l-26.22-13.11-9.81 35.97 33 235.2c-73.46 94.454-30.676 39.441-64.21 82.55h207v-430z"/></g></svg>