<?xml version="1.0" encoding="iso-8859-1"?>
<!-- Generator: Adobe Illustrator 18.0.0, SVG Export Plug-In . SVG Version: 6.00 Build 0)  -->
<!DOCTYPE svg PUBLIC "-//W3C//DTD SVG 1.1//EN" "http://www.w3.org/Graphics/SVG/1.1/DTD/svg11.dtd">
<svg fill='#ffffff' version="1.1" id="Capa_1" xmlns="http://www.w3.org/2000/svg" xmlns:xlink="http://www.w3.org/1999/xlink" x="0px" y="0px"
	 viewBox="0 0 297 297" style="enable-background:new 0 0 297 297;" xml:space="preserve">
<g>
	<path d="M122.22,97.707c0-2.105,0.738-4.145,2.086-5.762l14.015-16.818l-27.391-31.334l-58.566,98.805v127.908
		c0,2.485,2.015,4.5,4.5,4.5h65.356V97.707z"/>
	<polygon points="149.99,61.125 182.6,21.993 115.782,21.993 	"/>
	<path d="M98.46,29.529l-6.588-7.536H56.863c-0.671,0-1.333,0.15-1.938,0.438L2.562,47.423C0.997,48.17,0,49.75,0,51.484v84.972
		c0,1.545,0.793,2.981,2.1,3.806c1.306,0.825,2.945,0.92,4.339,0.256l36.584-17.461L98.46,29.529z"/>
	<path d="M294.438,47.423l-52.363-24.991c-0.605-0.288-1.268-0.438-1.938-0.438h-34.106l-5.644,6.773l54.523,94.735l35.652,17.016
		c1.394,0.663,3.032,0.568,4.339-0.256s2.1-2.261,2.1-3.806V51.484C297,49.75,296.003,48.17,294.438,47.423z"/>
	<path d="M188.102,43.508l-47.882,57.458v174.041h99.917c2.485,0,4.5-2.015,4.5-4.5V141.739L188.102,43.508z M171.437,224.327
		c-1.489,1.49-3.55,2.34-5.66,2.34c-2.1,0-4.17-0.85-5.649-2.34c-1.49-1.49-2.351-3.561-2.351-5.66c0-2.11,0.86-4.17,2.351-5.66
		s3.55-2.34,5.649-2.34c2.11,0,4.171,0.85,5.66,2.34c1.49,1.49,2.34,3.55,2.34,5.66
		C173.776,220.767,172.927,222.837,171.437,224.327z M171.437,172.487c-1.489,1.489-3.55,2.34-5.66,2.34
		c-2.1,0-4.17-0.851-5.649-2.34c-1.49-1.5-2.351-3.561-2.351-5.66c0-2.11,0.86-4.17,2.351-5.66s3.55-2.34,5.649-2.34
		c2.11,0,4.171,0.85,5.66,2.34c1.49,1.49,2.34,3.55,2.34,5.66C173.776,168.927,172.927,170.997,171.437,172.487z M171.437,120.647
		c-1.489,1.489-3.55,2.34-5.66,2.34c-2.1,0-4.159-0.851-5.649-2.34c-1.49-1.49-2.351-3.551-2.351-5.66c0-2.11,0.86-4.17,2.351-5.66
		s3.55-2.34,5.649-2.34c2.11,0,4.171,0.85,5.66,2.34c1.49,1.49,2.34,3.55,2.34,5.66
		C173.776,117.097,172.927,119.157,171.437,120.647z"/>
</g>
<g>
</g>
<g>
</g>
<g>
</g>
<g>
</g>
<g>
</g>
<g>
</g>
<g>
</g>
<g>
</g>
<g>
</g>
<g>
</g>
<g>
</g>
<g>
</g>
<g>
</g>
<g>
</g>
<g>
</g>
</svg>
